<svg width="493" height="493" viewBox="0 0 493 493" fill="none" xmlns="http://www.w3.org/2000/svg">
<rect width="493" height="493" fill="black"/>
<path d="M236.886 406.334L83.6952 255.73C82.2193 254.279 83.2492 251.773 85.3213 251.773H244.367C268.15 251.773 284.905 275.071 277.285 297.546L240.706 405.428C240.158 407.045 238.104 407.532 236.886 406.334Z" fill="white"/>
<path d="M262.777 89.9839L406.928 231.638C408.404 233.089 407.374 235.596 405.302 235.596H333.281C318.459 235.596 305.268 226.217 300.432 212.24L258.962 92.3844C258.163 90.0755 261.033 88.2698 262.777 89.9839Z" fill="white"/>
<path d="M409.317 255.718L262.798 401.881C261.063 403.613 258.174 401.816 258.968 399.5L301.56 275.224C306.367 261.198 319.582 251.773 334.441 251.773H407.679C409.743 251.773 410.776 254.262 409.317 255.718Z" fill="white"/>
<path d="M242.444 86.5738L277.347 189.856C284.94 212.324 268.186 235.596 244.418 235.596H92.2581C90.1878 235.596 89.1571 233.093 90.6292 231.641L238.62 85.6687C239.838 84.4672 241.897 84.9544 242.444 86.5738Z" fill="white"/>
</svg>
