<svg width="151" height="24" viewBox="0 0 151 24" fill="none" xmlns="http://www.w3.org/2000/svg">
<path d="M10.5796 23.4122L0.0477945 12.6925C-0.0536703 12.5893 0.017134 12.4109 0.159591 12.4109H11.0939C12.7291 12.4109 13.881 14.0692 13.3571 15.6689L10.8423 23.3478C10.8046 23.4628 10.6634 23.4975 10.5796 23.4122Z" fill="#FFFFFF"/>
<path d="M12.3597 0.895031L22.27 10.9777C22.3715 11.081 22.3007 11.2594 22.1582 11.2594H17.2068C16.1878 11.2594 15.2809 10.5919 14.9485 9.59702L12.0974 1.06589C12.0424 0.901548 12.2398 0.773023 12.3597 0.895031Z" fill="#FFFFFF"/>
<path d="M22.4343 12.6917L12.3611 23.0953C12.2418 23.2185 12.0432 23.0907 12.0978 22.9258L15.026 14.0801C15.3565 13.0817 16.265 12.4109 17.2866 12.4109H22.3216C22.4635 12.4109 22.5346 12.5881 22.4343 12.6917Z" fill="#FFFFFF"/>
<path d="M10.9618 0.652302L13.3613 8.00371C13.8834 9.60299 12.7316 11.2594 11.0975 11.2594H0.636494C0.494164 11.2594 0.4233 11.0813 0.52451 10.9779L10.6988 0.587879C10.7826 0.502359 10.9241 0.537041 10.9618 0.652302Z" fill="#FFFFFF"/>
<path d="M31.0807 19C30.8749 19 30.7606 18.8628 30.7606 18.657V3.3375C30.7606 3.13172 30.8749 2.99452 31.0807 2.99452H32.9785C33.1843 2.99452 33.3215 3.13172 33.3215 3.3375V9.96834H39.9523V3.3375C39.9523 3.13172 40.0895 2.99452 40.2953 2.99452H42.1931C42.3989 2.99452 42.5132 3.13172 42.5132 3.3375V18.657C42.5132 18.8628 42.3989 19 42.1931 19H40.2953C40.0895 19 39.9523 18.8628 39.9523 18.657V12.232H33.3215V18.657C33.3215 18.8628 33.1843 19 32.9785 19H31.0807Z" fill="#FFFFFF"/>
<path d="M47.1144 23.3443C46.8629 23.3443 46.7486 23.2072 46.8629 22.9785L48.4634 19.0229L44.1419 8.18487C44.0505 7.93336 44.1648 7.79617 44.4163 7.79617H46.2684C46.4513 7.79617 46.5885 7.88763 46.6571 8.07055L49.6753 16.1647L52.7163 8.07055C52.7849 7.88763 52.9221 7.79617 53.105 7.79617H54.9571C55.2086 7.79617 55.3001 7.93336 55.2086 8.18487L49.3094 23.07C49.2408 23.2529 49.0808 23.3443 48.8979 23.3443H47.1144Z" fill="#FFFFFF"/>
<path d="M56.9197 23.3443C56.7139 23.3443 56.5996 23.2072 56.5996 23.0014V8.13914C56.5996 7.93336 56.7139 7.79617 56.9197 7.79617H58.5888C58.7946 7.79617 58.9089 7.93336 58.9089 8.13914L58.9547 9.64823C59.7321 8.34493 61.0583 7.52179 62.9103 7.52179C66.1114 7.52179 68.3064 10.0827 68.3064 13.3981C68.3064 16.7364 66.1114 19.2744 62.9103 19.2744C61.1726 19.2744 59.8693 18.5427 59.069 17.3309V23.0014C59.069 23.2072 58.9547 23.3443 58.7489 23.3443H56.9197ZM59.0461 13.4209C59.0461 15.5703 60.4409 17.0107 62.4302 17.0107C64.4423 17.0107 65.9056 15.5703 65.9056 13.3981C65.9056 11.2488 64.4423 9.78542 62.4302 9.78542C60.4409 9.78542 59.0461 11.2488 59.0461 13.4209Z" fill="#FFFFFF"/>
<path d="M75.2656 19.2744C71.6072 19.2744 69.2292 16.6906 69.2292 13.3524C69.2292 10.0598 71.5157 7.52179 74.9226 7.52179C78.2838 7.52179 80.2273 10.0598 80.2273 12.8493C80.2273 13.8325 80.0215 14.3127 79.1755 14.3127H71.6301C71.9273 16.0961 73.2535 17.2851 75.4714 17.2851C76.5689 17.2851 77.4606 17.0107 78.3524 16.4163C78.4896 16.3248 78.6267 16.3477 78.7182 16.4849L79.3584 17.3537C79.4956 17.5366 79.4499 17.6738 79.267 17.8568C78.2838 18.8171 76.8433 19.2744 75.2656 19.2744ZM71.6072 12.5292H78.0323C77.8951 10.7 76.6832 9.6025 74.9226 9.6025C73.162 9.6025 71.8587 10.6772 71.6072 12.5292Z" fill="#FFFFFF"/>
<path d="M82.0495 19C81.8437 19 81.7294 18.8628 81.7294 18.657V8.13914C81.7294 7.93336 81.8437 7.79617 82.0495 7.79617H83.7872C83.993 7.79617 84.1074 7.88763 84.1074 8.16201L84.1759 9.51104C84.5875 8.39066 85.3192 7.52179 86.6682 7.52179C87.1713 7.52179 87.5142 7.63611 87.6972 7.7733C87.8572 7.88763 87.9029 8.00195 87.9029 8.20774V9.67109C87.9029 9.92261 87.7429 9.9912 87.4685 9.92261C87.1941 9.83115 86.9426 9.80828 86.6454 9.80828C84.8848 9.80828 84.1988 11.1802 84.1988 12.6207V18.657C84.1988 18.8628 84.0845 19 83.8787 19H82.0495Z" fill="#FFFFFF"/>
<path d="M95.5475 19.2744C93.7183 19.2744 92.3921 18.4741 91.5919 17.1708L91.5461 18.657C91.5461 18.8628 91.4318 19 91.226 19H89.5569C89.3511 19 89.2368 18.8628 89.2368 18.657V2.99452C89.2368 2.78874 89.3511 2.65155 89.5569 2.65155H91.3861C91.5919 2.65155 91.7062 2.78874 91.7062 2.99452V9.46531C92.5065 8.25347 93.8098 7.52179 95.5475 7.52179C98.7486 7.52179 100.944 10.0827 100.944 13.3981C100.944 16.7364 98.7486 19.2744 95.5475 19.2744ZM91.6833 13.4209C91.6833 15.5703 93.0781 17.0107 95.0673 17.0107C97.0795 17.0107 98.5428 15.5703 98.5428 13.3981C98.5428 11.2488 97.0795 9.78542 95.0673 9.78542C93.0781 9.78542 91.6833 11.2488 91.6833 13.4209Z" fill="#FFFFFF"/>
<path d="M107.674 19.2744C104.336 19.2744 101.866 16.7135 101.866 13.3981C101.866 10.0827 104.336 7.52179 107.674 7.52179C110.99 7.52179 113.459 10.0827 113.459 13.3981C113.459 16.7135 110.99 19.2744 107.674 19.2744ZM104.244 13.3981C104.244 15.5474 105.731 16.9879 107.674 16.9879C109.595 16.9879 111.081 15.5474 111.081 13.3981C111.081 11.2488 109.595 9.80828 107.674 9.80828C105.731 9.80828 104.244 11.2488 104.244 13.3981Z" fill="#FFFFFF"/>
<path d="M118.883 19.2744C116.505 19.2744 114.836 17.6281 114.836 14.6785V8.13914C114.836 7.93336 114.95 7.79617 115.156 7.79617H116.985C117.191 7.79617 117.305 7.93336 117.305 8.13914V14.2212C117.305 15.9818 118.174 16.9879 119.751 16.9879C121.306 16.9879 122.427 15.9818 122.427 14.2212V8.13914C122.427 7.93336 122.541 7.79617 122.747 7.79617H124.553C124.759 7.79617 124.896 7.93336 124.896 8.13914V18.657C124.896 18.8628 124.759 19 124.553 19H122.838C122.61 19 122.518 18.9085 122.495 18.6342L122.427 17.2623C121.786 18.4055 120.643 19.2744 118.883 19.2744Z" fill="#FFFFFF"/>
<path d="M127.263 19C127.057 19 126.943 18.8628 126.943 18.657V8.13914C126.943 7.93336 127.057 7.79617 127.263 7.79617H129.001C129.206 7.79617 129.321 7.88763 129.321 8.16201L129.412 9.5339C130.052 8.39066 131.173 7.52179 132.933 7.52179C135.311 7.52179 137.003 9.16807 137.003 12.1176V18.657C137.003 18.8628 136.866 19 136.66 19H134.854C134.648 19 134.534 18.8628 134.534 18.657V12.5749C134.534 10.8143 133.665 9.80828 132.087 9.80828C130.51 9.80828 129.412 10.8143 129.412 12.5749V18.657C129.412 18.8628 129.298 19 129.092 19H127.263Z" fill="#FFFFFF"/>
<path d="M143.874 19.2744C140.673 19.2744 138.478 16.7364 138.478 13.3981C138.478 10.0827 140.673 7.52179 143.874 7.52179C145.635 7.52179 146.915 8.25347 147.716 9.46531V2.99452C147.716 2.78874 147.83 2.65155 148.036 2.65155H149.865C150.071 2.65155 150.185 2.78874 150.185 2.99452V18.657C150.185 18.8628 150.071 19 149.865 19H148.196C147.99 19 147.876 18.8628 147.876 18.657L147.83 17.1708C147.03 18.4741 145.704 19.2744 143.874 19.2744ZM140.879 13.3981C140.879 15.5703 142.342 17.0107 144.355 17.0107C146.344 17.0107 147.739 15.5703 147.739 13.4209C147.739 11.2488 146.344 9.78542 144.355 9.78542C142.342 9.78542 140.879 11.2488 140.879 13.3981Z" fill="#FFFFFF"/>
</svg>
